<svg width="141" height="31" fill="none" xmlns="http://www.w3.org/2000/svg"><mask id="a" style="mask-type:luminance" maskUnits="userSpaceOnUse" x="0" y="0" width="141" height="31"><path fill-rule="evenodd" clip-rule="evenodd" d="M0 0h140.578v31H0V0z" fill="#fff"/></mask><g mask="url(#a)" fill-rule="evenodd" clip-rule="evenodd"><path d="M55.799 8.449h6.199V2.96h-6.199v5.489zM7.029 30.367h6.476l7.03-20.219h-6.2L10.386 23.14h-.079L6.358 10.148H0l7.029 20.219zm22.746-16.389c2.172 0 3.673 1.62 3.91 3.989h-8.254c.475-2.409 1.777-3.989 4.344-3.989zm.316 12.52c-2.724 0-4.384-1.779-4.699-4.502h14.571c.04-4.345-1.105-7.82-3.514-9.992-1.698-1.58-3.95-2.448-6.792-2.448-6.081 0-10.307 4.62-10.307 10.662 0 6.081 4.028 10.741 10.702 10.741 2.528 0 4.541-.671 6.199-1.817 1.778-1.224 3.041-3.001 3.397-4.777h-5.924c-.592 1.342-1.816 2.133-3.633 2.133zm11.333 3.869h6.161v-9.28c0-4.225 2.528-6.082 6.398-5.568h.118v-5.331c-.316-.119-.671-.158-1.264-.158-2.409 0-4.028 1.105-5.41 3.474h-.119v-3.356h-5.884v20.219zm14.375 0h6.199V10.148h-6.199v20.219zm7.899 0h17.297V25.51h-9.793v-.119l9.358-10.505v-4.738H63.698v4.857h9.477v.118l-9.477 10.584v4.66zm28.235-3.91c-2.923 0-4.462-2.448-4.462-6.16 0-3.752 1.539-6.161 4.462-6.161 2.922 0 4.541 2.409 4.541 6.161 0 3.712-1.619 6.16-4.541 6.16zm.04-16.862c-6.437 0-10.741 4.62-10.741 10.702 0 6.042 4.304 10.702 10.741 10.702 6.437 0 10.741-4.66 10.741-10.702 0-6.082-4.304-10.702-10.741-10.702zm12.084 20.772h6.16V19.113c0-2.568 1.501-4.384 3.712-4.384 2.132 0 3.238 1.501 3.238 3.633v12.005h6.161v-13.19c0-4.462-2.685-7.621-7.03-7.621-2.763 0-4.699 1.185-6.16 3.357h-.118v-2.765h-5.963v20.219z" fill="#fff"/><path d="M123.225 10.148h3.155l3.155 6.766L137.422 0h3.156l-9.465 20.297h-3.156l-4.732-10.149z" fill="#E00"/></g></svg>