<?xml version="1.0" encoding="UTF-8"?>
<svg id="Layer_2" data-name="Layer 2" xmlns="http://www.w3.org/2000/svg" viewBox="0 0 51.47 31.95">
  <defs>
    <style>
      .cls-1 {
        fill: #eb001b;
      }

      .cls-1, .cls-2, .cls-3 {
        fill-rule: evenodd;
        stroke-width: 0px;
      }

      .cls-2 {
        fill: #f79e1b;
      }

      .cls-3 {
        fill: #ff5f00;
      }
    </style>
  </defs>
  <g id="Layer_1-2" data-name="Layer 1">
    <g>
      <polygon id="Fill-1" class="cls-3" points="18.78 28.54 32.69 28.54 32.69 3.42 18.78 3.42 18.78 28.54"/>
      <path id="Fill-2" class="cls-1" d="M19.66,15.98c0-5.1,2.38-9.64,6.08-12.56C23.03,1.28,19.61,0,15.9,0,7.12,0,0,7.15,0,15.98s7.12,15.98,15.9,15.98c3.71,0,7.12-1.28,9.83-3.42-3.7-2.93-6.08-7.46-6.08-12.56"/>
      <path id="Fill-4" class="cls-2" d="M51.47,15.98c0,8.82-7.12,15.98-15.9,15.98-3.71,0-7.12-1.28-9.83-3.42,3.7-2.93,6.08-7.46,6.08-12.56s-2.38-9.64-6.08-12.56c2.71-2.14,6.12-3.42,9.83-3.42,8.78,0,15.9,7.15,15.9,15.98h0Z"/>
    </g>
  </g>
</svg>